{"title":"The Sitter 2011 DVDRiP XviD AC3 - iLLUSiON","uid":7073438,"size":1517499680,"categoryP":"video","categoryS":"movies","magnet":"?xt=urn:btih:27e4fb93d4664995674dfd0504c6e0716129ea5f&amp;dn=The+Sitter+2011+DVDRiP+XviD+AC3+-+iLLUSiON&amp;tr=udp%3A%2F%2Ftracker.openbittorrent.com%3A80&amp;tr=udp%3A%2F%2Fopen.demonii.com%3A1337&amp;tr=udp%3A%2F%2Ftracker.coppersurfer.tk%3A6969&amp;tr=udp%3A%2F%2Fexodus.desync.com%3A6969","seeders":0,"leechers":1,"uploader":"hiest","files":-1,"time":1330752059,"description":"Full Credits To:\n#### ##       ##       ##     ##  ######  ####  #######  ##    ## \n ##  ##       ##       ##     ## ##    ##  ##  ##     ## ###   ## \n ##  ##       ##       ##     ## ##        ##  ##     ## ####  ## \n ##  ##       ##       ##     ##  ######   ##  ##     ## ## ## ## \n ##  ##       ##       ##     ##       ##  ##  ##     ## ##  #### \n ##  ##       ##       ##     ## ##    ##  ##  ##     ## ##   ### \n#### ######## ########  #######   ######  ####  #######  ##    ## \n\n\n Movie Info\n Plot: A comedy about a college student on suspension who is \n coaxed into babysitting the kids next door, though he is \n fully unprepared for the wild night ahead of him. \n IMDB: http://www.imdb.com/title/tt1366344/\n IMDB Rating: 5.5\n Trailer:\n\n\n General Info\n Size: 1.39GB\n Format: AVI\n Runtime: 1:21:17\n\n\n\n Sources\n Video - The.Sitter.UNRATED.DVDR-Replica \n Audio - The.Sitter.UNRATED.DVDR-Replica \n (Thanks)\n\n\n\n Video Info\n ID : 0\n Format : MPEG-4 Visual\n Format profile : Advanced Simple@L5\n Format settings, BVOP : 2\n Format settings, QPel : No\n Format settings, GMC : No warppoints\n Format settings, Matrix : Default (H.263)\n Muxing mode : Packed bitstream\n Codec ID : XVID\n Codec ID/Hint : XviD\n Duration : 1h 21mn\n Bit rate : 1 994 Kbps\n Width : 720 pixels\n Height : 368 pixels\n Display aspect ratio : 1.957\n Frame rate : 23.976 fps\n Color space : YUV\n Chroma subsampling : 4:2:0\n Bit depth : 8 bits\n Scan type : Progressive\n Compression mode : Lossy\n Bits/(Pixel*Frame) : 0.314\n Stream size : 1.13 GiB (81%)\n Writing library : XviD 64\n\n\n Audio Info\n ID : 1\n Format : AC-3\n Format/Info : Audio Coding 3\n Mode extension : CM (complete main)\n Codec ID : 2000\n Duration : 1h 21mn\n Bit rate mode : Constant\n Bit rate : 448 Kbps\n Channel(s) : 6 channels\n Channel positions : Front: L C R, Side: L R, LFE\n Sampling rate : 48.0 KHz\n Bit depth : 16 bits\n Compression mode : Lossy\n Stream size : 260 MiB (18%)\n Alignment : Split accross interleaves\n Interleave, duration : 42 ms (1.00 video frame)\n Interleave, preload duration : 500 ms \n\n\n Encoders Notes\n There was a problem with the iso thats why so many have &quot;repeat scenes&quot;\n To fix this i simply joined all of the vobs together :P\n I cropped, resized, sharpned, de-noised, increased gamma &amp; contrast\n lowered saturation &amp; tweaked the colors.\n Its in sync threw out, theres no repeat scenes.\n This runtime 81mn, imdb runtime 81mn.\n Theres a sample included, enjoy.\n\n\n I am looking for:\n Lot of things...\n illusion [at] hushai\n\n\n\nScreenz:\n &lt;a href=&quot;\nhttp://imgr.us/images/b8xnu1788ruofmnwrzi6.jpg&quot; rel=&quot;nofollow&quot; target=&quot;_NEW&quot;&gt;\nhttp://imgr.us/images/b8xnu1788ruofmnwrzi6.jpg&lt;/a&gt;\n &lt;a href=&quot;\nhttp://imgr.us/images/79ij18hrvr9vy5euj5yd.jpg&quot; rel=&quot;nofollow&quot; target=&quot;_NEW&quot;&gt;\nhttp://imgr.us/images/79ij18hrvr9vy5euj5yd.jpg&lt;/a&gt;\n &lt;a href=&quot;\nhttp://imgr.us/images/e3rz5i4a4ja0p04nlpf0.jpg&quot; rel=&quot;nofollow&quot; target=&quot;_NEW&quot;&gt;\nhttp://imgr.us/images/e3rz5i4a4ja0p04nlpf0.jpg&lt;/a&gt;\n &lt;a href=&quot;\nhttp://imgr.us/images/mjst4t2n9kjtq5shvkih.jpg&quot; rel=&quot;nofollow&quot; target=&quot;_NEW&quot;&gt;\nhttp://imgr.us/images/mjst4t2n9kjtq5shvkih.jpg&lt;/a&gt;\n &lt;a href=&quot;\nhttp://imgr.us/images/7idsmrbya96kd3a95cv0.jpg&quot; rel=&quot;nofollow&quot; target=&quot;_NEW&quot;&gt;\nhttp://imgr.us/images/7idsmrbya96kd3a95cv0.jpg&lt;/a&gt;\n &lt;a href=&quot;\nhttp://imgr.us/images/i1o1wi6n26xtk02sev17.jpg&quot; rel=&quot;nofollow&quot; target=&quot;_NEW&quot;&gt;\nhttp://imgr.us/images/i1o1wi6n26xtk02sev17.jpg&lt;/a&gt;\n\n\nFull Credits To:\n#### ##       ##       ##     ##  ######  ####  #######  ##    ## \n ##  ##       ##       ##     ## ##    ##  ##  ##     ## ###   ## \n ##  ##       ##       ##     ## ##        ##  ##     ## ####  ## \n ##  ##       ##       ##     ##  ######   ##  ##     ## ## ## ## \n ##  ##       ##       ##     ##       ##  ##  ##     ## ##  #### \n ##  ##       ##       ##     ## ##    ##  ##  ##     ## ##   ### \n#### ######## ########  #######   ######  ####  #######  ##    ## ","torrent":{"xt":"urn:btih:27e4fb93d4664995674dfd0504c6e0716129ea5f","amp;dn":"The+Sitter+2011+DVDRiP+XviD+AC3+-+iLLUSiON","amp;tr":["udp%3A%2F%2Ftracker.openbittorrent.com%3A80","udp%3A%2F%2Fopen.demonii.com%3A1337","udp%3A%2F%2Ftracker.coppersurfer.tk%3A6969","udp%3A%2F%2Fexodus.desync.com%3A6969"],"infoHash":"27e4fb93d4664995674dfd0504c6e0716129ea5f","infoHashBuffer":{"type":"Buffer","data":[39,228,251,147,212,102,73,149,103,77,253,5,4,198,224,113,97,41,234,95]},"announce":[],"urlList":[]}}